<svg width="25" height="25" viewBox="0 0 25 25" fill="none" xmlns="http://www.w3.org/2000/svg">
<g clip-path="url(#clip0_1_292)">
<g clip-path="url(#clip1_1_292)">
<g clip-path="url(#clip2_1_292)">
<path d="M24.8236 22.2989C24.8236 23.7716 23.6296 24.9656 22.157 24.9656H3.49031C2.01764 24.9656 0.823639 23.7716 0.823639 22.2989V3.63224C0.823639 2.15958 2.01764 0.965576 3.49031 0.965576H22.157C23.6296 0.965576 24.8236 2.15958 24.8236 3.63224V22.2989Z" fill="#77B255"/>
<path d="M20.3436 5.2069C19.573 4.70624 18.541 4.92557 18.0383 5.69757L10.781 16.8836L7.42829 13.7836C6.75229 13.1582 5.69763 13.2002 5.07296 13.8756C4.44829 14.5516 4.48963 15.6062 5.16563 16.2309L9.97163 20.6749C10.2916 20.9716 10.6983 21.1182 11.1023 21.1182C11.551 21.1182 12.125 20.9302 12.5016 20.3589C12.723 20.0216 20.835 7.51224 20.835 7.51224C21.3356 6.73957 21.1156 5.70757 20.3436 5.2069Z" fill="white"/>
</g>
</g>
</g>
<defs>
<clipPath id="clip0_1_292">
<rect width="24" height="24" fill="white" transform="translate(0.823639 0.965576)"/>
</clipPath>
<clipPath id="clip1_1_292">
<rect width="24" height="24" fill="white" transform="translate(0.823639 0.965576)"/>
</clipPath>
<clipPath id="clip2_1_292">
<rect width="24" height="24" fill="white" transform="translate(0.823639 0.965576)"/>
</clipPath>
</defs>
</svg>
